# xmcd CD database file
#
# Track frame offsets:
#	150
#	23330
#	49392
#	66190
#	98802
#	122530
#	141570
#	160325
#	181930
#	201072
#	213877
#	234345
#	248595
#
# Disc length: 4214 seconds
#
# Revision: 0
# Processed by: cddbd v1.5PL3 Copyright (c) Steve Scherf et al.
# Submitted via: CDex 1.51
#
DISCID=ac10740d
DTITLE=Towa Tei Best - Towa Tei
DYEAR=2001
DGENRE=Techno
TTITLE0=Happy
TTITLE1=Technova
TTITLE2=Batterfly
TTITLE3=Luv Connection
TTITLE4=Forget Me Nots
TTITLE5=La Douce Vie
TTITLE6=Let Me Know
TTITLE7=Congratulations!
TTITLE8=GBI
TTITLE9=Last Century Modem
TTITLE10=Mars
TTITLE11=Obrigado
TTITLE12=Incense and A Night of UBUD
EXTD=YEAR: 2001
EXTT0=
EXTT1=
EXTT2=
EXTT3=
EXTT4=
EXTT5=
EXTT6=
EXTT7=
EXTT8=
EXTT9=
EXTT10=
EXTT11=
EXTT12=
PLAYORDER=
